<svg xmlns="http://www.w3.org/2000/svg" viewBox="0 0 512 512" width="100%" height="100%">
  <defs>
    <!-- Gradiente da capa traseira / base escura -->
    <linearGradient id="backCoverGrad" x1="0%" y1="0%" x2="100%" y2="100%">
      <stop offset="0%" stop-color="#144b8a" />
      <stop offset="60%" stop-color="#0f3c73" />
      <stop offset="100%" stop-color="#082347" />
    </linearGradient>

    <!-- Gradiente da lombada / borda esquerda -->
    <linearGradient id="spineGrad" x1="0%" y1="0%" x2="100%" y2="0%">
      <stop offset="0%" stop-color="#0f3c73" />
      <stop offset="70%" stop-color="#1959a6" />
      <stop offset="100%" stop-color="#0d3566" />
    </linearGradient>

    <!-- Gradiente vibrante da capa frontal -->
    <linearGradient id="frontCoverGrad" x1="0%" y1="0%" x2="100%" y2="0%">
      <stop offset="0%" stop-color="#166fe5" />
      <stop offset="40%" stop-color="#2382f7" />
      <stop offset="85%" stop-color="#1a73e8" />
      <stop offset="100%" stop-color="#125dc2" />
    </linearGradient>

    <!-- Brilho superior da capa frontal -->
    <linearGradient id="frontGlossGrad" x1="0%" y1="0%" x2="0%" y2="100%">
      <stop offset="0%" stop-color="#ffffff" stop-opacity="0.35" />
      <stop offset="15%" stop-color="#ffffff" stop-opacity="0.08" />
      <stop offset="100%" stop-color="#ffffff" stop-opacity="0" />
    </linearGradient>

    <!-- Gradiente das páginas (bloco de papel inferior) -->
    <linearGradient id="pagesGrad" x1="0%" y1="0%" x2="0%" y2="100%">
      <stop offset="0%" stop-color="#4a5568" />
      <stop offset="12%" stop-color="#8a95a5" />
      <stop offset="25%" stop-color="#d9e0e8" />
      <stop offset="48%" stop-color="#f4f7fa" />
      <stop offset="70%" stop-color="#cbd3dc" />
      <stop offset="90%" stop-color="#9aa5b5" />
      <stop offset="100%" stop-color="#5a6575" />
    </linearGradient>

    <!-- Sombra interna do bloco de páginas -->
    <linearGradient id="pagesShadowH" x1="0%" y1="0%" x2="100%" y2="0%">
      <stop offset="0%" stop-color="#1a2533" stop-opacity="0.9" />
      <stop offset="8%" stop-color="#2c3e50" stop-opacity="0.5" />
      <stop offset="15%" stop-color="#2c3e50" stop-opacity="0.05" />
      <stop offset="85%" stop-color="#2c3e50" stop-opacity="0.05" />
      <stop offset="95%" stop-color="#1a2533" stop-opacity="0.6" />
      <stop offset="100%" stop-color="#0e1722" stop-opacity="0.9" />
    </linearGradient>

    <!-- Curva inferior da capa / dobra 3D -->
    <linearGradient id="rimGrad" x1="0%" y1="0%" x2="0%" y2="100%">
      <stop offset="0%" stop-color="#125ec7" />
      <stop offset="40%" stop-color="#1b6edc" />
      <stop offset="85%" stop-color="#0b3875" />
      <stop offset="100%" stop-color="#061d3d" />
    </linearGradient>

    <!-- Marcador de página -->
    <linearGradient id="ribbonGrad" x1="0%" y1="0%" x2="100%" y2="0%">
      <stop offset="0%" stop-color="#10447f" />
      <stop offset="40%" stop-color="#2b75cb" />
      <stop offset="100%" stop-color="#124887" />
    </linearGradient>

    <!-- Sombra projetada do corte da capa sobre as folhas -->
    <filter id="coverShadow" x="-10%" y="-10%" width="130%" height="150%">
      <feDropShadow dx="0" dy="16" stdDeviation="10" flood-color="#031024" flood-opacity="0.75" />
    </filter>

    <!-- Sombra suave das letras -->
    <filter id="textGlow" x="-20%" y="-20%" width="140%" height="140%">
      <feDropShadow dx="0" dy="2" stdDeviation="3" flood-color="#082b59" flood-opacity="0.45" />
    </filter>
  </defs>

  <!-- 1. Fundo com cantos arredondados (Base do App Icon / Capa Traseira) -->
  <rect x="16" y="16" width="480" height="480" rx="90" fill="url(#backCoverGrad)" />

  <!-- 2. Bloco de Páginas (Miolo exposto no corte inferior) -->
  <path d="M 40 405
           C 50 380, 75 375, 110 375
           L 420 375
           C 460 375, 480 395, 480 425
           C 475 460, 440 472, 395 472
           L 100 472
           C 55 472, 35 440, 40 405 Z"
        fill="url(#pagesGrad)" />

  <path d="M 40 405
           C 50 380, 75 375, 110 375
           L 420 375
           C 460 375, 480 395, 480 425
           C 475 460, 440 472, 395 472
           L 100 472
           C 55 472, 35 440, 40 405 Z"
        fill="url(#pagesShadowH)" />

  <!-- Linhas sutis simulando a textura das folhas de papel -->
  <g stroke="#ffffff" stroke-opacity="0.35" stroke-width="1.2" stroke-linecap="round">
    <line x1="85" y1="412" x2="445" y2="412" />
    <line x1="75" y1="422" x2="455" y2="422" />
    <line x1="70" y1="432" x2="450" y2="432" />
    <line x1="75" y1="442" x2="435" y2="442" />
    <line x1="90" y1="452" x2="410" y2="452" />
    <line x1="110" y1="462" x2="380" y2="462" />
  </g>

  <!-- 3. Fita Marcadora de Página -->
  <path d="M 118 410
           L 118 468
           L 138 456
           L 158 468
           L 158 410 Z"
        fill="url(#ribbonGrad)" />

  <!-- 4. Contorno inferior da lombada/capa curva -->
  <path d="M 16 430
           C 16 470, 45 496, 95 496
           L 420 496
           C 465 496, 492 470, 492 435
           C 492 455, 465 486, 415 486
           L 95 486
           C 45 486, 26 455, 22 430 Z"
        fill="url(#rimGrad)" />

  <!-- Filete reflexivo na dobra inferior da capa -->
  <path d="M 95 486 L 415 486" stroke="#4897f7" stroke-width="2" opacity="0.6" />

  <!-- 5. Capa Frontal Superior (com sombra projetada sobre as páginas) -->
  <g filter="url(#coverShadow)">
    <path d="M 16 106
             C 16 56, 56 16, 106 16
             L 406 16
             C 456 16, 496 56, 496 106
             L 496 345
             C 475 385, 445 395, 410 395
             L 95 395
             C 40 395, 20 415, 16 430 Z"
          fill="url(#frontCoverGrad)" />
  </g>

  <!-- Lombada lateral esquerda (faixa com tom diferenciado) -->
  <path d="M 16 106
           C 16 56, 56 16, 106 16
           L 105 16
           L 105 395
           C 50 395, 22 415, 16 430 Z"
        fill="url(#spineGrad)" />

  <!-- Vinco vertical sutil dividindo a lombada e a frente da capa -->
  <line x1="105" y1="16" x2="105" y2="395" stroke="#0e3463" stroke-width="2" opacity="0.5" />
  <line x1="107" y1="16" x2="107" y2="395" stroke="#4395fb" stroke-width="1.5" opacity="0.4" />

  <!-- Brilho no topo da capa -->
  <path d="M 16 106
           C 16 56, 56 16, 106 16
           L 406 16
           C 456 16, 496 56, 496 106
           L 496 220
           C 360 170, 150 170, 16 220 Z"
        fill="url(#frontGlossGrad)" />

  <!-- Borda curva brilhante no corte inferior da capa frontal -->
  <path d="M 16 430
           C 20 415, 40 395, 95 395
           L 410 395
           C 445 395, 475 385, 496 345"
        fill="none"
        stroke="#68adff"
        stroke-width="2.5"
        stroke-linecap="round"
        opacity="0.8" />

  <!-- 6. Tipografia: "Bíblia" -->
  <text x="300"
        y="235"
        font-family="'Georgia', 'Times New Roman', 'Baskerville', serif"
        font-size="94"
        font-weight="bold"
        letter-spacing="1"
        fill="#ffffff"
        text-anchor="middle"
        filter="url(#textGlow)">Bíblia</text>
</svg>
